<svg width="270" height="270" viewBox="0 0 270 270" fill="none" xmlns="http://www.w3.org/2000/svg">
<path d="M135 22.5C74.0137 22.5 22.5 74.0137 22.5 135C22.5 195.986 74.0137 247.5 135 247.5C195.986 247.5 247.5 195.986 247.5 135C247.5 74.0137 195.986 22.5 135 22.5ZM135 78.75C154.429 78.75 168.75 93.06 168.75 112.5C168.75 131.94 154.429 146.25 135 146.25C115.583 146.25 101.25 131.94 101.25 112.5C101.25 93.06 115.583 78.75 135 78.75ZM77.5575 188.685C87.6488 173.835 104.479 163.935 123.75 163.935H146.25C165.533 163.935 182.351 173.835 192.443 188.685C178.065 204.075 157.669 213.75 135 213.75C112.331 213.75 91.935 204.075 77.5575 188.685Z" fill="#48B5FF" fill-opacity="0.2"/>
</svg>
