<svg width="30" height="30" viewBox="0 0 30 30" fill="none" xmlns="http://www.w3.org/2000/svg">
<path d="M17.7526 17.2137C17.6357 17.0967 17.6357 16.9063 17.7526 16.7893L23.4747 11.073C24.1751 10.3695 24.1751 9.23107 23.4747 8.5276C22.7742 7.82413 21.6403 7.82413 20.9399 8.5276L15.2134 14.2484C15.0964 14.3654 14.9059 14.3654 14.7889 14.2484L9.07437 8.5261C8.37093 7.82563 7.23102 7.82563 6.52758 8.5261C5.82414 9.22657 5.82414 10.3605 6.52758 11.061L12.2481 16.7863C12.3651 16.9033 12.3651 17.0937 12.2481 17.2107L6.52608 22.927C5.82564 23.6305 5.82564 24.7689 6.52608 25.4724C7.22652 26.1759 8.36043 26.1759 9.06087 25.4724L14.7859 19.7516C14.9029 19.6346 15.0934 19.6346 15.2104 19.7516L20.9264 25.4739C21.6298 26.1744 22.7682 26.1744 23.4717 25.4739C24.1751 24.7734 24.1751 23.6395 23.4717 22.939L17.7526 17.2137Z" fill="#FF4848"/>
</svg>
