<svg width="18" height="18" viewBox="0 0 18 18" fill="none" xmlns="http://www.w3.org/2000/svg">
    <path d="M11.7526 9.21374C11.6357 9.09675 11.6357 8.90625 11.7526 8.78926L17.4747 3.073C18.1751 2.36953 18.1751 1.23107 17.4747 0.527603C16.7742 -0.175868 15.6403 -0.175868 14.9399 0.527603L9.21336 6.24836C9.09637 6.36536 8.90588 6.36536 8.78889 6.24836L3.07437 0.526103C2.37093 -0.174368 1.23102 -0.174368 0.527581 0.526103C-0.17586 1.22657 -0.17586 2.36053 0.527581 3.061L6.2481 8.78626C6.36509 8.90325 6.36509 9.09375 6.2481 9.21074L0.526081 14.927C-0.174361 15.6305 -0.174361 16.7689 0.526081 17.4724C1.22652 18.1759 2.36043 18.1759 3.06087 17.4724L8.78589 11.7516C8.90288 11.6346 9.09337 11.6346 9.21036 11.7516L14.9264 17.4739C15.6298 18.1744 16.7682 18.1744 17.4717 17.4739C18.1751 16.7734 18.1751 15.6395 17.4717 14.939L11.7526 9.21374Z"
          fill="#FF4848"/>
</svg>
