<svg width="20" height="20" viewBox="0 0 20 20" fill="none" xmlns="http://www.w3.org/2000/svg">
    <path d="M4.37496 15C3.65666 15 2.96779 14.7147 2.45988 14.2067C1.95197 13.6988 1.66663 13.01 1.66663 12.2917V5.20833C1.66663 4.49004 1.95197 3.80116 2.45988 3.29325C2.96779 2.78534 3.65666 2.5 4.37496 2.5H15.625C15.9806 2.5 16.3328 2.57005 16.6614 2.70616C16.99 2.84227 17.2885 3.04176 17.54 3.29325C17.7915 3.54474 17.991 3.84331 18.1271 4.1719C18.2632 4.50049 18.3333 4.85267 18.3333 5.20833V12.2917C18.3333 12.6473 18.2632 12.9995 18.1271 13.3281C17.991 13.6567 17.7915 13.9553 17.54 14.2067C17.2885 14.4582 16.99 14.6577 16.6614 14.7938C16.3328 14.9299 15.9806 15 15.625 15H10.8041L6.31496 18.1808C6.1903 18.2691 6.04377 18.3215 5.89138 18.3321C5.739 18.3428 5.58661 18.3113 5.45089 18.2412C5.31516 18.1711 5.20131 18.0651 5.12179 17.9346C5.04226 17.8042 5.00012 17.6544 4.99996 17.5017V15H4.37496Z"
          fill="#5085A9"/>
</svg>
