<svg width="30" height="30" viewBox="0 0 30 30" fill="none" xmlns="http://www.w3.org/2000/svg">
<path d="M5.60951 30H25.9555C26.7857 30 27.5819 29.6839 28.1689 29.1213C28.7559 28.5587 29.0857 27.7956 29.0857 27V3C29.0857 2.20435 28.7559 1.44129 28.1689 0.87868C27.5819 0.31607 26.7857 0 25.9555 0H4.04443C3.21427 0 2.4181 0.31607 1.83108 0.87868C1.24406 1.44129 0.914276 2.20435 0.914276 3V27C0.914276 27.7956 1.24406 28.5587 1.83108 29.1213C2.4181 29.6839 3.21427 30 4.04443 30H5.60951ZM15 4.4985C17.5777 4.4985 19.6952 6.525 19.6952 8.9985C19.6952 11.4705 17.5777 13.5 15 13.5C12.4223 13.5 10.3048 11.4705 10.3048 8.9985C10.3048 6.525 12.4223 4.4985 15 4.4985ZM5.60951 22.875C5.60951 19.5465 9.84305 16.125 15 16.125C20.1569 16.125 24.3905 19.5465 24.3905 22.875V24H5.60951V22.875Z" fill="#48B5FF"/>
</svg>
