<svg width="147" height="60" viewBox="0 0 147 60" fill="none" xmlns="http://www.w3.org/2000/svg">
<g clip-path="url(#clip0)">
<g filter="url(#filter0_f)">
<ellipse cx="83.5" cy="29.5" rx="59.5" ry="19.5" fill="black"/>
<path d="M142 29.5C142 31.7473 140.611 34.0536 137.712 36.2998C134.826 38.5357 130.588 40.5927 125.261 42.3383C114.619 45.8261 99.8543 48 83.5 48C67.1457 48 52.3807 45.8261 41.7386 42.3383C36.4121 40.5927 32.174 38.5357 29.2883 36.2998C26.3894 34.0536 25 31.7473 25 29.5C25 27.2527 26.3894 24.9464 29.2883 22.7002C32.174 20.4643 36.4121 18.4073 41.7386 16.6617C52.3807 13.1739 67.1457 11 83.5 11C99.8543 11 114.619 13.1739 125.261 16.6617C130.588 18.4073 134.826 20.4643 137.712 22.7002C140.611 24.9464 142 27.2527 142 29.5Z" stroke="white" stroke-opacity="0.8" stroke-width="2"/>
</g>
<path d="M56.4277 11.4814L56.1992 12.6855C57.0547 11.748 58.0273 11.291 59.1172 11.3145C60.0137 11.3379 60.6758 11.6484 61.1035 12.2461C61.5312 12.8438 61.6895 13.6846 61.5781 14.7686L60.541 21H58.9502L59.9961 14.7422C60.0312 14.4551 60.0342 14.1885 60.0049 13.9424C59.9053 13.1221 59.4219 12.7031 58.5547 12.6855C57.5996 12.668 56.7617 13.1777 56.041 14.2148L54.8633 21H53.2725L54.9248 11.4902L56.4277 11.4814ZM67.1943 9.1875L66.79 11.4902H68.5215L68.3018 12.7471H66.5791L65.5859 18.6621C65.5684 18.8145 65.5654 18.9551 65.5771 19.084C65.6182 19.541 65.8672 19.7695 66.3242 19.7695C66.5176 19.7695 66.7754 19.7402 67.0977 19.6816L66.9746 21.0088C66.5938 21.1143 66.207 21.167 65.8145 21.167C65.1816 21.1553 64.707 20.9238 64.3906 20.4727C64.0742 20.0156 63.9512 19.4033 64.0215 18.6357L64.9883 12.7471H63.3096L63.5293 11.4902H65.208L65.6123 9.1875H67.1943ZM72.9072 21.1758C71.7236 21.1523 70.7979 20.7158 70.1299 19.8662C69.4619 19.0166 69.1807 17.9297 69.2861 16.6055L69.3301 16.2275C69.4297 15.2842 69.708 14.4229 70.165 13.6436C70.6279 12.8643 71.1904 12.2783 71.8525 11.8857C72.5146 11.4873 73.2295 11.2969 73.9971 11.3145C74.9756 11.3379 75.7432 11.6631 76.2998 12.29C76.8564 12.917 77.1611 13.7666 77.2139 14.8389C77.2314 15.2197 77.2197 15.6006 77.1787 15.9814L77.082 16.7109H70.8682C70.7627 17.5723 70.9033 18.3047 71.29 18.9082C71.6826 19.5117 72.2656 19.8252 73.0391 19.8486C73.9766 19.8721 74.8438 19.4502 75.6406 18.583L76.5547 19.3564C76.1562 19.9307 75.6406 20.3818 75.0078 20.71C74.3809 21.0322 73.6807 21.1875 72.9072 21.1758ZM73.918 12.6416C73.2617 12.624 72.6875 12.8467 72.1953 13.3096C71.709 13.7725 71.3223 14.4609 71.0352 15.375L75.6582 15.3838L75.6934 15.2432C75.7871 14.5049 75.667 13.8926 75.333 13.4062C75.0049 12.9141 74.5332 12.6592 73.918 12.6416ZM84.043 12.9404L83.2959 12.8613C82.2764 12.8613 81.4736 13.3213 80.8877 14.2412L79.7188 21H78.1279L79.7803 11.4902L81.3184 11.4814L81.0811 12.5889C81.7549 11.7041 82.5488 11.2734 83.4629 11.2969C83.6562 11.2969 83.9082 11.3408 84.2188 11.4287L84.043 12.9404ZM84.4121 16.2275C84.5527 15.1904 84.8311 14.291 85.2471 13.5293C85.6689 12.7617 86.1787 12.1963 86.7764 11.833C87.3799 11.4639 88.0391 11.2881 88.7539 11.3057C89.8555 11.3291 90.6875 11.7451 91.25 12.5537L91.5664 11.4902H93.0254L91.4434 20.7979C91.2734 22.0107 90.7812 22.9805 89.9668 23.707C89.1523 24.4395 88.1475 24.7881 86.9521 24.7529C86.3076 24.7412 85.6895 24.5889 85.0977 24.2959C84.5117 24.0029 84.0488 23.6016 83.709 23.0918L84.6143 22.1162C85.1885 22.9658 85.9473 23.4023 86.8906 23.4258C87.6465 23.4492 88.2852 23.2383 88.8066 22.793C89.334 22.3477 89.6826 21.7148 89.8525 20.8945L90.0283 20.0508C89.2549 20.8242 88.3496 21.1992 87.3125 21.1758C86.7207 21.1582 86.2051 21 85.7656 20.7012C85.332 20.3965 84.9951 19.96 84.7549 19.3916C84.5146 18.8174 84.3828 18.1787 84.3594 17.4756C84.3477 17.1299 84.3652 16.7139 84.4121 16.2275ZM85.9502 17.1328C85.9326 17.9707 86.0762 18.6211 86.3809 19.084C86.6914 19.541 87.1572 19.7812 87.7783 19.8047C88.7275 19.8281 89.5449 19.3623 90.2305 18.4072L90.9775 14.0391C90.626 13.1719 89.9902 12.7207 89.0703 12.6855C88.209 12.6621 87.5 13.0137 86.9434 13.7402C86.3926 14.4668 86.0674 15.4482 85.9678 16.6846L85.9502 17.1328ZM99.6611 21C99.6201 20.8301 99.5996 20.6631 99.5996 20.499L99.626 19.998C98.7529 20.8066 97.8271 21.1992 96.8486 21.1758C96.0107 21.1641 95.3281 20.9004 94.8008 20.3848C94.2793 19.8633 94.042 19.2129 94.0889 18.4336C94.1475 17.4258 94.5869 16.6406 95.4072 16.0781C96.2334 15.5098 97.3174 15.2256 98.6592 15.2256L100.32 15.2344L100.426 14.4785C100.484 13.9102 100.373 13.4619 100.092 13.1338C99.8164 12.7998 99.4004 12.627 98.8438 12.6152C98.2988 12.6035 97.8154 12.7383 97.3936 13.0195C96.9775 13.2949 96.7227 13.6611 96.6289 14.1182L95.0293 14.127C95.082 13.5703 95.2988 13.0781 95.6797 12.6504C96.0605 12.2168 96.5498 11.8828 97.1475 11.6484C97.7451 11.4082 98.3633 11.2939 99.002 11.3057C99.9922 11.3291 100.763 11.6309 101.313 12.2109C101.864 12.7852 102.096 13.5498 102.008 14.5049L101.234 19.2158L101.19 19.8926C101.179 20.2148 101.214 20.5342 101.296 20.8506L101.278 21H99.6611ZM97.165 19.7695C97.6748 19.7812 98.1553 19.6611 98.6064 19.4092C99.0635 19.1514 99.4561 18.7969 99.7842 18.3457L100.127 16.3857L98.9229 16.377C97.9209 16.377 97.1533 16.5352 96.6201 16.8516C96.0869 17.168 95.7852 17.6162 95.7148 18.1963C95.6621 18.6416 95.7646 19.0137 96.0225 19.3125C96.2861 19.6055 96.667 19.7578 97.165 19.7695ZM105.163 21H103.581L105.919 7.5H107.51L105.163 21ZM113.583 21C113.542 20.8301 113.521 20.6631 113.521 20.499L113.548 19.998C112.675 20.8066 111.749 21.1992 110.771 21.1758C109.933 21.1641 109.25 20.9004 108.723 20.3848C108.201 19.8633 107.964 19.2129 108.011 18.4336C108.069 17.4258 108.509 16.6406 109.329 16.0781C110.155 15.5098 111.239 15.2256 112.581 15.2256L114.242 15.2344L114.348 14.4785C114.406 13.9102 114.295 13.4619 114.014 13.1338C113.738 12.7998 113.322 12.627 112.766 12.6152C112.221 12.6035 111.737 12.7383 111.315 13.0195C110.899 13.2949 110.645 13.6611 110.551 14.1182L108.951 14.127C109.004 13.5703 109.221 13.0781 109.602 12.6504C109.982 12.2168 110.472 11.8828 111.069 11.6484C111.667 11.4082 112.285 11.2939 112.924 11.3057C113.914 11.3291 114.685 11.6309 115.235 12.2109C115.786 12.7852 116.018 13.5498 115.93 14.5049L115.156 19.2158L115.112 19.8926C115.101 20.2148 115.136 20.5342 115.218 20.8506L115.2 21H113.583ZM111.087 19.7695C111.597 19.7812 112.077 19.6611 112.528 19.4092C112.985 19.1514 113.378 18.7969 113.706 18.3457L114.049 16.3857L112.845 16.377C111.843 16.377 111.075 16.5352 110.542 16.8516C110.009 17.168 109.707 17.6162 109.637 18.1963C109.584 18.6416 109.687 19.0137 109.944 19.3125C110.208 19.6055 110.589 19.7578 111.087 19.7695ZM121.379 19.8574C121.947 19.8691 122.46 19.7051 122.917 19.3652C123.374 19.0195 123.673 18.5684 123.813 18.0117L125.316 18.0029C125.229 18.6006 124.988 19.1455 124.596 19.6377C124.209 20.1299 123.72 20.5137 123.128 20.7891C122.536 21.0645 121.93 21.1934 121.309 21.1758C120.518 21.1641 119.847 20.959 119.296 20.5605C118.751 20.1562 118.35 19.5967 118.092 18.8818C117.834 18.1611 117.746 17.3525 117.828 16.4561L117.872 16.0166C117.983 15.1025 118.25 14.2852 118.672 13.5645C119.094 12.8438 119.645 12.2842 120.324 11.8857C121.004 11.4814 121.754 11.291 122.574 11.3145C123.57 11.3379 124.367 11.6719 124.965 12.3164C125.562 12.9609 125.861 13.7783 125.861 14.7686L124.376 14.7598C124.364 14.1387 124.191 13.6377 123.857 13.2568C123.523 12.8701 123.072 12.665 122.504 12.6416C121.678 12.624 120.989 12.9316 120.438 13.5645C119.894 14.1973 119.554 15.082 119.419 16.2188L119.393 16.4473C119.357 16.8223 119.352 17.209 119.375 17.6074C119.416 18.293 119.609 18.835 119.955 19.2334C120.301 19.6318 120.775 19.8398 121.379 19.8574ZM130.792 9.1875L130.388 11.4902H132.119L131.899 12.7471H130.177L129.184 18.6621C129.166 18.8145 129.163 18.9551 129.175 19.084C129.216 19.541 129.465 19.7695 129.922 19.7695C130.115 19.7695 130.373 19.7402 130.695 19.6816L130.572 21.0088C130.191 21.1143 129.805 21.167 129.412 21.167C128.779 21.1553 128.305 20.9238 127.988 20.4727C127.672 20.0156 127.549 19.4033 127.619 18.6357L128.586 12.7471H126.907L127.127 11.4902H128.806L129.21 9.1875H130.792ZM134.114 21H132.532L134.185 11.4902H135.767L134.114 21ZM135.424 8.01855C135.693 8.00684 135.916 8.08887 136.092 8.26465C136.273 8.43457 136.364 8.66016 136.364 8.94141C136.358 9.2168 136.268 9.44238 136.092 9.61816C135.922 9.79395 135.699 9.8877 135.424 9.89941C135.148 9.91113 134.923 9.83203 134.747 9.66211C134.571 9.49219 134.486 9.26953 134.492 8.99414C134.498 8.71875 134.586 8.49023 134.756 8.30859C134.926 8.12695 135.148 8.03027 135.424 8.01855ZM140.732 19.8574C141.301 19.8691 141.813 19.7051 142.271 19.3652C142.728 19.0195 143.026 18.5684 143.167 18.0117L144.67 18.0029C144.582 18.6006 144.342 19.1455 143.949 19.6377C143.562 20.1299 143.073 20.5137 142.481 20.7891C141.89 21.0645 141.283 21.1934 140.662 21.1758C139.871 21.1641 139.2 20.959 138.649 20.5605C138.104 20.1562 137.703 19.5967 137.445 18.8818C137.188 18.1611 137.1 17.3525 137.182 16.4561L137.226 16.0166C137.337 15.1025 137.604 14.2852 138.025 13.5645C138.447 12.8438 138.998 12.2842 139.678 11.8857C140.357 11.4814 141.107 11.291 141.928 11.3145C142.924 11.3379 143.721 11.6719 144.318 12.3164C144.916 12.9609 145.215 13.7783 145.215 14.7686L143.729 14.7598C143.718 14.1387 143.545 13.6377 143.211 13.2568C142.877 12.8701 142.426 12.665 141.857 12.6416C141.031 12.624 140.343 12.9316 139.792 13.5645C139.247 14.1973 138.907 15.082 138.772 16.2188L138.746 16.4473C138.711 16.8223 138.705 17.209 138.729 17.6074C138.77 18.293 138.963 18.835 139.309 19.2334C139.654 19.6318 140.129 19.8398 140.732 19.8574Z" fill="white"/>
<path d="M33.3848 39.1133H25.4551L24.3887 45.2383H33.6582L33.1797 48H20.5332L23.9785 28.0938H36.543L36.0508 30.8828H26.877L25.9199 36.3789H33.8633L33.3848 39.1133Z" fill="white"/>
<path d="M39.4277 37.4814L39.1992 38.6855C40.0547 37.748 41.0273 37.291 42.1172 37.3145C43.0137 37.3379 43.6758 37.6484 44.1035 38.2461C44.5312 38.8438 44.6895 39.6846 44.5781 40.7686L43.541 47H41.9502L42.9961 40.7422C43.0312 40.4551 43.0342 40.1885 43.0049 39.9424C42.9053 39.1221 42.4219 38.7031 41.5547 38.6855C40.5996 38.668 39.7617 39.1777 39.041 40.2148L37.8633 47H36.2725L37.9248 37.4902L39.4277 37.4814ZM50.1943 35.1875L49.79 37.4902H51.5215L51.3018 38.7471H49.5791L48.5859 44.6621C48.5684 44.8145 48.5654 44.9551 48.5771 45.084C48.6182 45.541 48.8672 45.7695 49.3242 45.7695C49.5176 45.7695 49.7754 45.7402 50.0977 45.6816L49.9746 47.0088C49.5938 47.1143 49.207 47.167 48.8145 47.167C48.1816 47.1553 47.707 46.9238 47.3906 46.4727C47.0742 46.0156 46.9512 45.4033 47.0215 44.6357L47.9883 38.7471H46.3096L46.5293 37.4902H48.208L48.6123 35.1875H50.1943ZM55.9072 47.1758C54.7236 47.1523 53.7979 46.7158 53.1299 45.8662C52.4619 45.0166 52.1807 43.9297 52.2861 42.6055L52.3301 42.2275C52.4297 41.2842 52.708 40.4229 53.165 39.6436C53.6279 38.8643 54.1904 38.2783 54.8525 37.8857C55.5146 37.4873 56.2295 37.2969 56.9971 37.3145C57.9756 37.3379 58.7432 37.6631 59.2998 38.29C59.8564 38.917 60.1611 39.7666 60.2139 40.8389C60.2314 41.2197 60.2197 41.6006 60.1787 41.9814L60.082 42.7109H53.8682C53.7627 43.5723 53.9033 44.3047 54.29 44.9082C54.6826 45.5117 55.2656 45.8252 56.0391 45.8486C56.9766 45.8721 57.8438 45.4502 58.6406 44.583L59.5547 45.3564C59.1562 45.9307 58.6406 46.3818 58.0078 46.71C57.3809 47.0322 56.6807 47.1875 55.9072 47.1758ZM56.918 38.6416C56.2617 38.624 55.6875 38.8467 55.1953 39.3096C54.709 39.7725 54.3223 40.4609 54.0352 41.375L58.6582 41.3838L58.6934 41.2432C58.7871 40.5049 58.667 39.8926 58.333 39.4062C58.0049 38.9141 57.5332 38.6592 56.918 38.6416ZM67.043 38.9404L66.2959 38.8613C65.2764 38.8613 64.4736 39.3213 63.8877 40.2412L62.7188 47H61.1279L62.7803 37.4902L64.3184 37.4814L64.0811 38.5889C64.7549 37.7041 65.5488 37.2734 66.4629 37.2969C66.6562 37.2969 66.9082 37.3408 67.2188 37.4287L67.043 38.9404ZM71.7627 35.1875L71.3584 37.4902H73.0898L72.8701 38.7471H71.1475L70.1543 44.6621C70.1367 44.8145 70.1338 44.9551 70.1455 45.084C70.1865 45.541 70.4355 45.7695 70.8926 45.7695C71.0859 45.7695 71.3438 45.7402 71.666 45.6816L71.543 47.0088C71.1621 47.1143 70.7754 47.167 70.3828 47.167C69.75 47.1553 69.2754 46.9238 68.959 46.4727C68.6426 46.0156 68.5195 45.4033 68.5898 44.6357L69.5566 38.7471H67.8779L68.0977 37.4902H69.7764L70.1807 35.1875H71.7627ZM79.1807 47C79.1396 46.8301 79.1191 46.6631 79.1191 46.499L79.1455 45.998C78.2725 46.8066 77.3467 47.1992 76.3682 47.1758C75.5303 47.1641 74.8477 46.9004 74.3203 46.3848C73.7988 45.8633 73.5615 45.2129 73.6084 44.4336C73.667 43.4258 74.1064 42.6406 74.9268 42.0781C75.7529 41.5098 76.8369 41.2256 78.1787 41.2256L79.8398 41.2344L79.9453 40.4785C80.0039 39.9102 79.8926 39.4619 79.6113 39.1338C79.3359 38.7998 78.9199 38.627 78.3633 38.6152C77.8184 38.6035 77.335 38.7383 76.9131 39.0195C76.4971 39.2949 76.2422 39.6611 76.1484 40.1182L74.5488 40.127C74.6016 39.5703 74.8184 39.0781 75.1992 38.6504C75.5801 38.2168 76.0693 37.8828 76.667 37.6484C77.2646 37.4082 77.8828 37.2939 78.5215 37.3057C79.5117 37.3291 80.2822 37.6309 80.833 38.2109C81.3838 38.7852 81.6152 39.5498 81.5273 40.5049L80.7539 45.2158L80.71 45.8926C80.6982 46.2148 80.7334 46.5342 80.8154 46.8506L80.7979 47H79.1807ZM76.6846 45.7695C77.1943 45.7812 77.6748 45.6611 78.126 45.4092C78.583 45.1514 78.9756 44.7969 79.3037 44.3457L79.6465 42.3857L78.4424 42.377C77.4404 42.377 76.6729 42.5352 76.1396 42.8516C75.6064 43.168 75.3047 43.6162 75.2344 44.1963C75.1816 44.6416 75.2842 45.0137 75.542 45.3125C75.8057 45.6055 76.1865 45.7578 76.6846 45.7695ZM84.6826 47H83.1006L84.7529 37.4902H86.335L84.6826 47ZM85.9922 34.0186C86.2617 34.0068 86.4844 34.0889 86.6602 34.2646C86.8418 34.4346 86.9326 34.6602 86.9326 34.9414C86.9268 35.2168 86.8359 35.4424 86.6602 35.6182C86.4902 35.7939 86.2676 35.8877 85.9922 35.8994C85.7168 35.9111 85.4912 35.832 85.3154 35.6621C85.1396 35.4922 85.0547 35.2695 85.0605 34.9941C85.0664 34.7188 85.1543 34.4902 85.3242 34.3086C85.4941 34.127 85.7168 34.0303 85.9922 34.0186ZM90.4395 37.4814L90.2109 38.6855C91.0664 37.748 92.0391 37.291 93.1289 37.3145C94.0254 37.3379 94.6875 37.6484 95.1152 38.2461C95.543 38.8438 95.7012 39.6846 95.5898 40.7686L94.5527 47H92.9619L94.0078 40.7422C94.043 40.4551 94.0459 40.1885 94.0166 39.9424C93.917 39.1221 93.4336 38.7031 92.5664 38.6855C91.6113 38.668 90.7734 39.1777 90.0527 40.2148L88.875 47H87.2842L88.9365 37.4902L90.4395 37.4814ZM100.143 37.4814L99.9404 38.5449C100.737 37.7012 101.701 37.291 102.832 37.3145C103.436 37.3262 103.945 37.4639 104.361 37.7275C104.783 37.9912 105.073 38.3633 105.231 38.8438C106.122 37.8008 107.174 37.291 108.387 37.3145C109.336 37.3379 110.036 37.6572 110.487 38.2725C110.938 38.8877 111.105 39.7139 110.988 40.751L109.942 47H108.36L109.397 40.7334C109.433 40.4287 109.433 40.1504 109.397 39.8984C109.286 39.1016 108.765 38.6943 107.833 38.6768C107.253 38.665 106.726 38.8467 106.251 39.2217C105.782 39.5908 105.48 40.0771 105.346 40.6807L104.265 47H102.665L103.72 40.7422C103.796 40.0918 103.696 39.5908 103.421 39.2393C103.151 38.8877 102.729 38.7061 102.155 38.6943C101.165 38.6709 100.377 39.1221 99.791 40.0479L98.5869 47H96.9961L98.6484 37.4902L100.143 37.4814ZM116.517 47.1758C115.333 47.1523 114.407 46.7158 113.739 45.8662C113.071 45.0166 112.79 43.9297 112.896 42.6055L112.939 42.2275C113.039 41.2842 113.317 40.4229 113.774 39.6436C114.237 38.8643 114.8 38.2783 115.462 37.8857C116.124 37.4873 116.839 37.2969 117.606 37.3145C118.585 37.3379 119.353 37.6631 119.909 38.29C120.466 38.917 120.771 39.7666 120.823 40.8389C120.841 41.2197 120.829 41.6006 120.788 41.9814L120.691 42.7109H114.478C114.372 43.5723 114.513 44.3047 114.899 44.9082C115.292 45.5117 115.875 45.8252 116.648 45.8486C117.586 45.8721 118.453 45.4502 119.25 44.583L120.164 45.3564C119.766 45.9307 119.25 46.3818 118.617 46.71C117.99 47.0322 117.29 47.1875 116.517 47.1758ZM117.527 38.6416C116.871 38.624 116.297 38.8467 115.805 39.3096C115.318 39.7725 114.932 40.4609 114.645 41.375L119.268 41.3838L119.303 41.2432C119.396 40.5049 119.276 39.8926 118.942 39.4062C118.614 38.9141 118.143 38.6592 117.527 38.6416ZM124.893 37.4814L124.664 38.6855C125.52 37.748 126.492 37.291 127.582 37.3145C128.479 37.3379 129.141 37.6484 129.568 38.2461C129.996 38.8438 130.154 39.6846 130.043 40.7686L129.006 47H127.415L128.461 40.7422C128.496 40.4551 128.499 40.1885 128.47 39.9424C128.37 39.1221 127.887 38.7031 127.02 38.6855C126.064 38.668 125.227 39.1777 124.506 40.2148L123.328 47H121.737L123.39 37.4902L124.893 37.4814ZM135.659 35.1875L135.255 37.4902H136.986L136.767 38.7471H135.044L134.051 44.6621C134.033 44.8145 134.03 44.9551 134.042 45.084C134.083 45.541 134.332 45.7695 134.789 45.7695C134.982 45.7695 135.24 45.7402 135.562 45.6816L135.439 47.0088C135.059 47.1143 134.672 47.167 134.279 47.167C133.646 47.1553 133.172 46.9238 132.855 46.4727C132.539 46.0156 132.416 45.4033 132.486 44.6357L133.453 38.7471H131.774L131.994 37.4902H133.673L134.077 35.1875H135.659Z" fill="white"/>
<path d="M46.8398 35H42.0352L46.9766 6.5625H51.7812L46.8398 35Z" fill="white"/>
<path d="M31 5.44077L33.5021 12.2025L33.5819 12.4181L33.7975 12.4979L40.5592 15L33.7975 17.5021L33.5819 17.5819L33.5021 17.7975L31 24.5592L28.4979 17.7975L28.4181 17.5819L28.2025 17.5021L21.4408 15L28.2025 12.4979L28.4181 12.4181L28.4979 12.2025L31 5.44077Z" fill="#48B5FF" stroke="#48B5FF"/>
<g filter="url(#filter1_f)">
<ellipse cx="84" cy="30" rx="22" ry="6" fill="white" fill-opacity="0.8"/>
<path d="M105.5 30C105.5 30.5636 105.075 31.2223 104 31.9153C102.948 32.5938 101.392 33.2237 99.4248 33.7603C95.4975 34.8313 90.0438 35.5 84 35.5C77.9562 35.5 72.5025 34.8313 68.5752 33.7603C66.608 33.2237 65.0521 32.5938 63.9998 31.9153C62.9251 31.2223 62.5 30.5636 62.5 30C62.5 29.4364 62.9251 28.7777 63.9998 28.0847C65.0521 27.4062 66.608 26.7763 68.5752 26.2397C72.5025 25.1687 77.9562 24.5 84 24.5C90.0438 24.5 95.4975 25.1687 99.4248 26.2397C101.392 26.7763 102.948 27.4062 104 28.0847C105.075 28.7777 105.5 29.4364 105.5 30Z" stroke="#B2DDFA"/>
</g>
</g>
<defs>
<filter id="filter0_f" x="21" y="7" width="125" height="45" filterUnits="userSpaceOnUse" color-interpolation-filters="sRGB">
<feFlood flood-opacity="0" result="BackgroundImageFix"/>
<feBlend mode="normal" in="SourceGraphic" in2="BackgroundImageFix" result="shape"/>
<feGaussianBlur stdDeviation="1.5" result="effect1_foregroundBlur"/>
</filter>
<filter id="filter1_f" x="52" y="14" width="64" height="32" filterUnits="userSpaceOnUse" color-interpolation-filters="sRGB">
<feFlood flood-opacity="0" result="BackgroundImageFix"/>
<feBlend mode="normal" in="SourceGraphic" in2="BackgroundImageFix" result="shape"/>
<feGaussianBlur stdDeviation="5" result="effect1_foregroundBlur"/>
</filter>
<clipPath id="clip0">
<rect width="147" height="60" fill="white"/>
</clipPath>
</defs>
</svg>
