<svg width="20" height="20" viewBox="0 0 20 20" fill="none" xmlns="http://www.w3.org/2000/svg">
    <path d="M18.3333 4.24439C17.5889 2.71661 15.4445 1.46661 12.95 2.19439C11.8391 2.57883 10.8552 3.26106 10.1056 4.16661C9.51851 4.93502 9.05377 5.78955 8.72779 6.69994L12.3722 8.33328L9.27779 11.2555L10.5556 12.7777L9.68334 13.5222L7.68334 11.1777L10.3167 8.67217L7.29445 7.33328C7.56117 6.25526 7.99213 5.22469 8.57223 4.27772C8.75026 3.98039 8.94695 3.69463 9.16112 3.42217H9.19445C8.57839 2.85544 7.83831 2.44069 7.03334 2.21106C4.55001 1.47772 2.41112 2.71661 1.66667 4.24439C0.62223 6.38328 1.05556 8.78883 2.95556 11.3944C4.44445 13.4333 6.57223 15.4999 9.66112 17.8999C9.75874 17.9761 9.87899 18.0174 10.0028 18.0174C10.1266 18.0174 10.2468 17.9761 10.3445 17.8999C13.4278 15.5055 15.5611 13.4555 17.05 11.3944C18.9445 8.78883 19.3778 6.38328 18.3333 4.24439Z"
          fill="#3654F4"/>
</svg>
